#N canvas 179 71 1123 691 10;
#X obj 101 140 cnv 20 350 50 empty empty empty 20 12 0 14 -261682 -66577
0;
#X obj 101 198 cnv 20 350 50 empty empty empty 20 12 0 14 -262130 -66577
0;
#X obj 271 198 cnv 20 180 50 empty empty empty 20 12 0 14 -204786 -66577
0;
#X obj 103 253 cnv 15 150 50 empty empty empty 20 12 0 14 -204800 -66577
0;
#X obj 264 253 cnv 20 175 35 empty empty empty 20 12 0 14 -232576 -66577
0;
#X obj 617 104 r maxSamples;
#X obj 584 132 scaler 0 0;
#X obj 640 180 r maxSamples;
#X obj 641 202 scaler 0 0;
#X obj 647 155 s rangeMin;
#X obj 586 223 s rangeMax;
#X text 170 203 Speed min.;
#X obj 519 318 scaler 999.9 0.1;
#X obj 521 343 s speedCtrlMin;
#X obj 527 369 scaler 999.9 0.1;
#X obj 526 392 s speedCtrlMax;
#X text 170 228 Speed Max.;
#X text 170 145 Pos. Begin (in file);
#X text 170 169 Pos. end (in file);
#X obj 582 253 scaler 199 1;
#X obj 582 275 s durCtrlMin;
#X obj 692 251 scaler 199 1;
#X text 340 228 Duration Max.;
#X obj 692 273 s durCtrlMax;
#X obj 525 422 scaler 4998 1;
#X obj 525 452 s pitchCtrlMin;
#X obj 529 481 scaler 4999 1;
#X obj 529 507 s pitchCtrlMax;
#X text 173 260 Pitch min.;
#X text 174 284 Pitch Max.;
#X obj 459 283 s stereoCtrl;
#X obj 459 258 scaler 1000 0;
#X obj 103 104 cnv 15 150 20 empty empty MIDI_automation 5 12 0 14
-4032 -66577 0;
#X text 338 203 Duration min.;
#X text 337 263 Stereo spread;
#X obj 106 307 cnv 15 100 60 empty empty empty 20 12 0 14 -191407 -66577
0;
#X obj 528 534 scaler 2500 0;
#X obj 528 560 s mainVol;
#X text 118 342 Main Volume;
#X obj 585 167 spigot;
#X obj 720 115 r positionLinked;
#X obj 105 167 ctl_select 11;
#X obj 106 142 ctl_select 10;
#X obj 108 200 ctl_select 12;
#X obj 108 225 ctl_select 13;
#X obj 273 200 ctl_select 14;
#X obj 273 225 ctl_select 15;
#X obj 108 257 ctl_select 16;
#X obj 108 282 ctl_select 17;
#X obj 268 261 ctl_select 18;
#X obj 111 316 ctl_select 7;
#X obj -55 96 f;
#X obj -55 74 r automation_save;
#X obj -80 579 savepanel;
#X obj -79 604 symbol;
#X obj -55 140 s automation_textfile;
#X obj 251 575 r automation_textfile;
#X obj -215 96 f;
#X obj -215 74 r automation_save;
#X obj -215 140 s automation_textfile;
#X obj 226 307 ctl_select 63;
#X text 288 309 MAIN ON/OFF (toggle);
#X obj 226 340 ctl_select 64;
#X obj -55 185 f;
#X obj -55 163 r automation_save;
#X obj -55 229 s automation_textfile;
#X obj -215 185 f;
#X obj -215 163 r automation_save;
#X obj -215 229 s automation_textfile;
#X text 263 99 For each control select which MIDI controller automates
each control, f 24;
#X obj -53 275 f;
#X obj -53 253 r automation_save;
#X obj -53 319 s automation_textfile;
#X obj -213 275 f;
#X obj -213 253 r automation_save;
#X obj -213 319 s automation_textfile;
#X obj -52 365 f;
#X obj -52 343 r automation_save;
#X obj -52 409 s automation_textfile;
#X obj -212 365 f;
#X obj -212 343 r automation_save;
#X obj -212 409 s automation_textfile;
#X obj -211 464 f;
#X obj -211 442 r automation_save;
#X obj -211 508 s automation_textfile;
#X obj 104 56 route pos_begin pos_end speed_min speed_max dur_min dur_max
pitch_min pitch_max stereo_spread main_vol main_control rec_start,
f 67;
#X obj -39 463 f;
#X obj -39 441 r automation_save;
#X obj -39 507 s automation_textfile;
#X obj 141 497 f;
#X obj 141 475 r automation_save;
#X obj 141 541 s automation_textfile;
#X obj 311 497 f;
#X obj 311 475 r automation_save;
#X obj 311 541 s automation_textfile;
#X obj 108 376 bng 20 250 50 0 empty empty empty 17 7 0 10 -262130
-1 -1;
#X msg 195 582 clear;
#X obj 64 600 s automation_save;
#X obj 42 556 t b b b;
#X msg -79 631 write \$1;
#X obj 554 617 openpanel;
#X text 136 379 save mapping to file;
#X obj 197 668 qlist;
#X msg -55 118 pos_begin \$1;
#X msg -216 207 speed_min \$1;
#X msg -55 207 speed_max \$1;
#X msg -213 297 dur_min \$1;
#X msg -53 297 dur_max \$1;
#X msg -212 387 pitch_min \$1;
#X msg -52 387 pitch_max \$1;
#X msg -211 486 stereo_spread \$1;
#X msg -39 485 main_vol \$1;
#X obj 104 28 r automation_load;
#X msg -215 118 pos_end \$1;
#X msg 142 519 main_control \$1;
#X msg 312 519 rec_start \$1;
#X obj 252 598 unpack s f;
#X obj 251 622 pack s f;
#X msg 251 644 add automation_load \$1 \$2;
#X obj -14 49 print AAAA;
#X msg 554 643 read \$1 \, rewind \, bang;
#X obj 108 403 bng 20 250 50 0 empty empty empty 17 7 0 10 -204800
-1 -1;
#X text 136 406 load mapping from file;
#X msg 620 590 automation_default.txt;
#X symbolatom 105 426 49 0 0 0 - - -, f 49;
#X obj 625 563 loadbang;
#X obj 640 618 symbol;
#X obj 712 618 print automation_load;
#X obj 676 405 change;
#X obj 676 430 s granitaMain;
#X text 288 343 Start record (TODO);
#X connect 5 0 6 1;
#X connect 6 0 9 0;
#X connect 6 0 39 0;
#X connect 7 0 8 1;
#X connect 8 0 10 0;
#X connect 12 0 13 0;
#X connect 14 0 15 0;
#X connect 19 0 20 0;
#X connect 21 0 23 0;
#X connect 24 0 25 0;
#X connect 26 0 27 0;
#X connect 31 0 30 0;
#X connect 36 0 37 0;
#X connect 39 0 10 0;
#X connect 40 0 39 1;
#X connect 41 0 8 0;
#X connect 41 1 57 1;
#X connect 42 0 6 0;
#X connect 42 1 51 1;
#X connect 43 0 12 0;
#X connect 43 1 66 1;
#X connect 44 0 14 0;
#X connect 44 1 63 1;
#X connect 45 0 19 0;
#X connect 45 1 73 1;
#X connect 46 0 21 0;
#X connect 46 1 70 1;
#X connect 47 0 24 0;
#X connect 47 1 79 1;
#X connect 48 0 26 0;
#X connect 48 1 76 1;
#X connect 49 0 31 0;
#X connect 49 1 82 1;
#X connect 50 0 36 0;
#X connect 50 1 86 1;
#X connect 51 0 103 0;
#X connect 52 0 51 0;
#X connect 53 0 54 0;
#X connect 54 0 99 0;
#X connect 56 0 116 0;
#X connect 57 0 113 0;
#X connect 58 0 57 0;
#X connect 60 0 128 0;
#X connect 60 1 89 1;
#X connect 62 1 92 1;
#X connect 63 0 105 0;
#X connect 64 0 63 0;
#X connect 66 0 104 0;
#X connect 67 0 66 0;
#X connect 70 0 107 0;
#X connect 71 0 70 0;
#X connect 73 0 106 0;
#X connect 74 0 73 0;
#X connect 76 0 109 0;
#X connect 77 0 76 0;
#X connect 79 0 108 0;
#X connect 80 0 79 0;
#X connect 82 0 110 0;
#X connect 83 0 82 0;
#X connect 85 0 42 0;
#X connect 85 1 41 0;
#X connect 85 2 43 0;
#X connect 85 3 44 0;
#X connect 85 4 45 0;
#X connect 85 5 46 0;
#X connect 85 6 47 0;
#X connect 85 7 48 0;
#X connect 85 8 49 0;
#X connect 85 9 50 0;
#X connect 85 10 60 0;
#X connect 85 11 62 0;
#X connect 86 0 111 0;
#X connect 87 0 86 0;
#X connect 89 0 114 0;
#X connect 90 0 89 0;
#X connect 92 0 115 0;
#X connect 93 0 92 0;
#X connect 95 0 98 0;
#X connect 96 0 102 0;
#X connect 98 0 53 0;
#X connect 98 1 97 0;
#X connect 98 2 96 0;
#X connect 99 0 102 0;
#X connect 100 0 120 0;
#X connect 100 0 124 0;
#X connect 100 0 127 0;
#X connect 103 0 55 0;
#X connect 104 0 68 0;
#X connect 105 0 65 0;
#X connect 106 0 75 0;
#X connect 107 0 72 0;
#X connect 108 0 81 0;
#X connect 109 0 78 0;
#X connect 110 0 84 0;
#X connect 111 0 88 0;
#X connect 112 0 85 0;
#X connect 112 0 119 0;
#X connect 113 0 59 0;
#X connect 114 0 91 0;
#X connect 115 0 94 0;
#X connect 116 0 117 0;
#X connect 116 1 117 1;
#X connect 117 0 118 0;
#X connect 118 0 102 0;
#X connect 120 0 102 0;
#X connect 121 0 100 0;
#X connect 123 0 126 0;
#X connect 125 0 123 0;
#X connect 126 0 120 0;
#X connect 126 0 124 0;
#X connect 126 0 127 0;
#X connect 128 0 129 0;
#X coords 0 -1 1 1 355 348 2 100 100;
