#N canvas 814 259 450 300 10;
#X obj 101 101 cnv 15 53 18 empty empty empty 20 12 0 14 -262144 -66577
0;
#X obj 9 150 route;
#X floatatom 104 103 3 1 127 1 ctl - -, f 3;
#X obj 9 100 pack f f;
#X obj 8 36 ctlin;
#X obj 8 58 swap;
#X obj 9 189 outlet;
#X obj 103 38 loadbang;
#X obj 103 67 f \$1;
#X obj 105 187 outlet ctl;
#X obj 197 39 inlet;
#X obj 104 142 change;
#X connect 1 0 6 0;
#X connect 2 0 1 1;
#X connect 2 0 11 0;
#X connect 3 0 1 0;
#X connect 4 0 5 0;
#X connect 4 1 5 1;
#X connect 5 0 3 0;
#X connect 5 1 3 1;
#X connect 7 0 8 0;
#X connect 8 0 2 0;
#X connect 10 0 8 0;
#X connect 11 0 9 0;
#X coords 0 -1 1 1 55 20 2 100 100;
