#N canvas 485 173 813 629 10;
#X obj 75 457 output~;
#X msg 10 54 open /Users/kieran/Desktop/destructive_EP/Mist_form_wip.wav
\$1;
#N canvas 910 238 643 512 sample 0;
#X obj 133 230 phasor~;
#X obj 133 62 openpanel;
#X msg 133 84 read -resize \$1 channelL channelR;
#X obj 133 106 soundfiler;
#X floatatom 149 131 12 0 0 0 - - -;
#X obj 133 179 expr 44100 / $f1;
#X obj 149 152 s sampleSize;
#X floatatom 152 205 12 0 0 0 - - -;
#X obj 133 267 *~;
#X obj 168 250 r sampleSize;
#X obj 133 306 tabread4~ channelL;
#X obj 200 331 tabread4~ channelR;
#X obj 133 445 outlet~ L;
#X obj 200 446 outlet~ R;
#X obj -5 22 inlet;
#X obj 271 194 hsl 128 15 -1 1 0 1 empty empty -_________|_________+
2 9 0 10 -262144 -1 -1 6533 1;
#X floatatom 268 214 12 0 0 0 - - -;
#X obj 318 243 tgl 15 0 empty empty empty 17 7 0 10 -262144 -1 -1 1
1;
#X obj 318 263 metro 50;
#X obj 318 285 snapshot~;
#X floatatom 318 307 12 0 0 0 - - -;
#X obj 318 343 /;
#X floatatom 318 365 5 0 0 0 - - -;
#X obj 346 326 r sampleSize;
#X obj 431 381 hsl 195 15 0 1 0 1 empty empty empty -2 -8 0 10 -262144
-1 -1 0 1;
#X text 427 398 Playback position;
#X obj 60 23 inlet;
#X obj 346 241 loadbang;
#X obj 284 447 outlet;
#X obj 284 426 sel 0;
#X obj 270 156 r playback;
#X obj 329 406 s playback1;
#N canvas 425 230 450 300 channel 0;
#N canvas 0 22 450 278 (subpatch) 0;
#X array channelL 5.70822e+06 float 2;
#X coords 0 1 5.70822e+06 -1 200 140 1;
#X restore 122 70 graph;
#X restore 488 148 pd channel L;
#N canvas 658 318 450 300 channel 0;
#N canvas 0 22 450 278 (subpatch) 0;
#X array channelR 5.70822e+06 float 2;
#X coords 0 1 5.70822e+06 -1 200 140 1;
#X restore 103 57 graph;
#X restore 487 172 pd channel R;
#X connect 0 0 8 0;
#X connect 2 0 3 0;
#X connect 3 0 4 0;
#X connect 3 0 5 0;
#X connect 4 0 6 0;
#X connect 5 0 7 0;
#X connect 5 0 0 0;
#X connect 7 0 0 0;
#X connect 8 0 10 0;
#X connect 8 0 11 0;
#X connect 8 0 19 0;
#X connect 9 0 8 1;
#X connect 10 0 12 0;
#X connect 11 0 13 0;
#X connect 14 0 2 0;
#X connect 15 0 16 0;
#X connect 17 0 18 0;
#X connect 18 0 19 0;
#X connect 19 0 20 0;
#X connect 20 0 21 0;
#X connect 21 0 22 0;
#X connect 22 0 24 0;
#X connect 22 0 31 0;
#X connect 22 0 29 0;
#X connect 23 0 21 1;
#X connect 26 0 29 0;
#X connect 26 0 0 1;
#X connect 27 0 17 0;
#X connect 29 0 28 0;
#X connect 30 0 0 1;
#X restore 75 156 pd sample;
#X obj 126 180 bng 15 250 50 0 empty empty empty 17 7 0 10 -262144
-1 -1;
#X msg 63 97 0;
#X obj 376 99 expr~ if($v1 > $f2 \, pow($f2 - ($v1 - $f2) \, $f3) \,
if($v1 < -1*$f2 \, -1*$f2 + (-1*$f2 - $v1) \, $v1));
#N canvas 889 526 450 300 Skip 0;
#X obj 7 15 inlet~;
#X obj 20 289 s playback;
#X obj 9 43 env~;
#X floatatom 9 69 5 0 0 0 - - -;
#X obj 27 157 oneshot;
#X obj 27 180 bng 15 250 50 0 empty empty empty 17 7 0 10 -262144 -1
-1;
#X obj 27 118 sel 1;
#X msg 75 136 clear;
#X obj 27 93 > 92;
#X floatatom 48 69 5 0 0 0 - - -;
#X obj 88 177 t b b;
#X msg 48 43 88;
#X msg 77 43 95;
#X obj 88 201 f;
#X obj 88 266 +;
#X floatatom 88 289 10 0 0 0 - - -;
#X floatatom 115 266 10 0 0 0 - - -;
#X obj 115 223 - 5;
#X obj 133 177 r playback1;
#X obj 115 201 random 10;
#X obj 115 245 / 1000;
#X obj 114 20 inlet;
#X text 156 21 Threshold;
#X connect 0 0 2 0;
#X connect 2 0 3 0;
#X connect 3 0 8 0;
#X connect 4 0 5 0;
#X connect 5 0 10 0;
#X connect 6 0 4 0;
#X connect 6 1 7 0;
#X connect 7 0 4 0;
#X connect 8 0 6 0;
#X connect 9 0 8 1;
#X connect 10 0 13 0;
#X connect 10 1 19 0;
#X connect 11 0 9 0;
#X connect 12 0 9 0;
#X connect 13 0 14 0;
#X connect 14 0 15 0;
#X connect 14 0 1 0;
#X connect 17 0 20 0;
#X connect 18 0 13 1;
#X connect 19 0 17 0;
#X connect 20 0 16 0;
#X connect 20 0 14 1;
#X connect 21 0 9 0;
#X restore 141 262 pd Skip;
#X floatatom 195 230 5 0 0 0 - - -;
#N canvas 35 66 592 433 Hann-window 0;
#N canvas 0 22 450 300 (subpatch) 0;
#X array \$0-hann 1024 float 0;
#X coords 0 1 1023 0 200 120 1;
#X restore 293 249 graph;
#X msg 171 263 0;
#X obj 65 312 osc~;
#X obj 65 264 samplerate~;
#X obj 65 335 *~ -0.5;
#X obj 65 358 +~ 0.5;
#X obj 57 383 tabwrite~ \$0-hann;
#X text 279 241 1;
#X text 272 359 0;
#X text 288 372 0;
#X obj 57 241 bng 15 250 50 0 empty empty empty 0 -6 0 8 -262144 -1
-1;
#X text 336 221 Hann window;
#X text 113 310 period 512;
#X text 90 215 recalculate Hann;
#X text 125 230 window table;
#X obj 57 146 loadbang;
#X msg 79 179 \; pd dsp 1;
#X text 40 27 The Hann window is now recomputed on 'loadbang' to make
the file smaller (it doesn't have to be saved with the array.);
#X text 474 375 511;
#X obj 65 288 / 1024;
#X connect 1 0 2 1;
#X connect 2 0 4 0;
#X connect 3 0 19 0;
#X connect 4 0 5 0;
#X connect 5 0 6 0;
#X connect 10 0 3 0;
#X connect 10 0 1 0;
#X connect 10 0 6 0;
#X connect 15 0 10 0;
#X connect 15 0 16 0;
#X connect 19 0 2 0;
#X restore 236 480 pd Hann-window;
#X msg 236 426 const 0;
#X text 343 425 <- reset gain;
#X obj 236 455 s gain;
#X msg 288 426 const 1;
#N canvas 265 48 643 640 fft-analysis 0;
#X obj 15 164 *~;
#X obj 14 99 inlet~;
#X obj 15 218 rfft~;
#X obj 36 140 tabreceive~ \$0-hann;
#X obj 14 353 *~;
#X obj 56 353 *~;
#X text 85 88 The inlet~ now re-uses 3/4 of the previous block \, along
with the 128 new samples.;
#X text 221 141 window function as before.;
#X obj 77 225 *~;
#X obj 16 506 *~;
#X obj 37 481 tabreceive~ \$0-hann;
#X text 98 301 divide by 3N/2 (factor of N because rfft and rifft aren't
normalized \, and 3/2 is the gain of overlap-4 reconstruction when
Hann window function is applied twice.);
#X text 120 216 Just to show we're doing something \, we multiply each
channel by a gain controlled by an array in the main window. The control
is quartic-scaled for easy editing.;
#X obj 78 251 *~;
#X text 92 357 Multiply the (complex-valued) spectrum amplitudes by
the (real-valued) gain-and-normalization-factor;
#X obj 15 399 rifft~;
#X text 89 396 Real-valued inverse Fourier transform. This uses only
the first N/@ points of its inputs \, supplying the rest by symmerty
(so it's OK that rfft~ obly puts out those N/2 points.) There's only
one outlet because the output is real-valued.;
#X obj 16 566 outlet~;
#X text 88 499 Multiply by the Hann window function again \, necessary
because the operation we performed might result in a signal that doesn't
go smoothly to zero at both ends.;
#X text 89 566 This repackages the output into 64-sample chunks for
the parent window. Since we're operating with an overlap \, the outlet~
object performs an overlapped sum of the blocks computed in this window.
;
#X text 129 8 block~ object specifies vector size of 512 and overlap
four. This window now computes blocks of 512 samples at intervals of
128 samples computed on the parent patch.;
#X obj 76 196 tabreceive~ gain;
#X obj 15 8 block~ 1024 4;
#X obj 77 283 /~ 1536;
#X connect 0 0 2 0;
#X connect 1 0 0 0;
#X connect 2 0 4 0;
#X connect 2 1 5 0;
#X connect 3 0 0 1;
#X connect 4 0 15 0;
#X connect 5 0 15 1;
#X connect 8 0 13 0;
#X connect 8 0 13 1;
#X connect 9 0 17 0;
#X connect 10 0 9 1;
#X connect 13 0 23 0;
#X connect 15 0 9 0;
#X connect 21 0 8 0;
#X connect 21 0 8 1;
#X connect 23 0 4 1;
#X connect 23 0 5 1;
#X restore 75 382 pd fft-analysis;
#N canvas 936 538 604 304 gain 0;
#N canvas 0 22 450 300 (subpatch) 0;
#X array gain 512 float 3;
#A 0 1 1 1 1 1 1 1 1 1 1 1 1 1 1 1 1 1 1 1 1 1 1 1 1 1 1 1 1 1 1 1
1 1 1 1 1 1 1 1 1 1 1 1 1 1 1 1 1 1 1 1 1 1 1 1 1 1 1 1 1 1 1 1 1 1
1 1 1 1 1 1 1 1 1 1 1 1 1 1 1 1 1 1 1 1 1 1 1 1 1 1 1 1 1 1 1 1 1 1
1 1 1 1 1 1 1 1 1 1 1 1 1 1 1 1 1 1 1 1 1 1 1 1 1 1 1 1 1 1 1 1 1 1
1 1 1 1 1 1 1 1 1 1 1 1 1 1 1 1 1 1 1 1 1 1 1 1 1 1 1 1 1 1 1 1 1 1
1 1 1 1 1 1 1 1 1 1 1 1 1 1 1 1 1 1 1 1 1 1 1 1 1 1 1 1 1 1 1 1 1 1
1 1 1 1 1 1 1 1 1 1 1 1 1 1 1 1 1 1 1 1 1 1 1 1 1 1 1 1 1 1 1 1 1 1
1 1 1 1 1 1 1 1 1 1 1 1 1 1 1 1 1 1 1 1 1 1 1 1 1 1 1 1 1 1 1 1 1 1
1 1 1 1 1 1 1 1 1 1 1 1 1 1 1 1 1 1 1 1 1 1 1 1 1 1 1 1 1 1 1 1 1 1
1 1 1 1 1 1 1 1 1 1 1 1 1 1 1 1 1 1 1 1 1 1 1 1 1 1 1 1 1 1 1 1 1 1
1 1 1 1 1 1 1 1 1 1 1 1 1 1 1 1 1 1 1 1 1 1 1 1 1 1 1 1 1 1 1 1 1 1
1 1 1 1 1 1 1 1 1 1 1 1 1 1 1 1 1 1 1 1 1 1 1 1 1 1 1 1 1 1 1 1 1 1
1 1 1 1 1 1 1 1 1 1 1 1 1 1 1 1 1 1 1 1 1 1 1 1 1 1 1 1 1 1 1 1 1 1
1 1 1 1 1 1 1 1 1 1 1 1 1 1 1 1 1 1 1 1 1 1 1 1 1 1 1 1 1 1 1 1 1 1
1 1 1 1 1 1 1 1 1 1 1 1 1 1 1 1 1 1 1 1 1 1 1 1 1 1 1 1 1 1 1 1 1 1
1 1 1 1 1;
#X coords 0 1 512 -0.01 512 100 1 0 0;
#X restore 55 46 graph;
#X text 44 100 0;
#X restore 258 275 pd gain tab;
#X msg 257 230 \; gain 0 0 0 0 1 0 0 0 1 0 0 0 0 0 0 1;
#N canvas 265 48 643 640 fft-analysis 0;
#X obj 15 164 *~;
#X obj 14 99 inlet~;
#X obj 15 218 rfft~;
#X obj 36 140 tabreceive~ \$0-hann;
#X obj 14 353 *~;
#X obj 56 353 *~;
#X text 85 88 The inlet~ now re-uses 3/4 of the previous block \, along
with the 128 new samples.;
#X text 221 141 window function as before.;
#X obj 77 225 *~;
#X obj 16 506 *~;
#X obj 37 481 tabreceive~ \$0-hann;
#X text 98 301 divide by 3N/2 (factor of N because rfft and rifft aren't
normalized \, and 3/2 is the gain of overlap-4 reconstruction when
Hann window function is applied twice.);
#X text 120 216 Just to show we're doing something \, we multiply each
channel by a gain controlled by an array in the main window. The control
is quartic-scaled for easy editing.;
#X obj 78 251 *~;
#X text 92 357 Multiply the (complex-valued) spectrum amplitudes by
the (real-valued) gain-and-normalization-factor;
#X obj 15 399 rifft~;
#X text 89 396 Real-valued inverse Fourier transform. This uses only
the first N/@ points of its inputs \, supplying the rest by symmerty
(so it's OK that rfft~ obly puts out those N/2 points.) There's only
one outlet because the output is real-valued.;
#X obj 16 566 outlet~;
#X text 88 499 Multiply by the Hann window function again \, necessary
because the operation we performed might result in a signal that doesn't
go smoothly to zero at both ends.;
#X text 89 566 This repackages the output into 64-sample chunks for
the parent window. Since we're operating with an overlap \, the outlet~
object performs an overlapped sum of the blocks computed in this window.
;
#X text 129 8 block~ object specifies vector size of 512 and overlap
four. This window now computes blocks of 512 samples at intervals of
128 samples computed on the parent patch.;
#X obj 76 196 tabreceive~ gain;
#X obj 15 8 block~ 1024 4;
#X obj 77 283 /~ 1536;
#X connect 0 0 2 0;
#X connect 1 0 0 0;
#X connect 2 0 4 0;
#X connect 2 1 5 0;
#X connect 3 0 0 1;
#X connect 4 0 15 0;
#X connect 5 0 15 1;
#X connect 8 0 13 0;
#X connect 8 0 13 1;
#X connect 9 0 17 0;
#X connect 10 0 9 1;
#X connect 13 0 23 0;
#X connect 15 0 9 0;
#X connect 21 0 8 0;
#X connect 21 0 8 1;
#X connect 23 0 4 1;
#X connect 23 0 5 1;
#X restore 133 409 pd fft-analysis;
#X connect 1 0 2 0;
#X connect 2 0 6 0;
#X connect 2 0 13 0;
#X connect 2 1 16 0;
#X connect 2 2 3 0;
#X connect 4 0 2 0;
#X connect 7 0 6 1;
#X connect 9 0 11 0;
#X connect 12 0 11 0;
#X connect 13 0 0 0;
#X connect 16 0 0 1;
