#N canvas 653 153 813 629 10;
#X obj -41 199 readsf~;
#X msg -37 45 1;
#X msg 0 47 0;
#X obj 71 99 bng 15 250 50 0 empty empty empty 17 7 0 10 -262144 -1
-1;
#X obj 65 73 t b;
#X msg 297 35 open /Users/kieran/Desktop/pdstuff/Mist_form_wip.wav
\$1;
#X floatatom 355 -40 5 0 0 0 - - -;
#X obj 322 7 * 44100;
#X obj -34 317 output~;
#X obj 225 23 t b f;
#X obj 39 232 env~;
#X floatatom 40 278 5 0 0 0 - - -;
#X obj 301 249 oneshot;
#X obj 305 285 bng 15 250 50 0 empty empty empty 17 7 0 10 -262144
-1 -1;
#X obj 309 219 sel 1;
#X msg 398 210 clear;
#X obj 308 183 > 92;
#X floatatom 371 154 5 0 0 0 - - -;
#X floatatom 285 359 5 0 0 0 - - -;
#N canvas 0 22 450 278 (subpatch) 0;
#X array track 100 float 3;
#A 0 0 0 0 0 0 0 0 0 0 0 0 0 0 0 0 0 0 0 0 0 0 0 0 0 0 0 0 0 0 0 0
0 0 0 0 0 0 0 0 0 0 0 0 0 0 0 0 0 0 0 0 0 0 0 0 0 0 0 0 0 0 0 0 0 0
0 0 0 0 0 0 0 0 0 0 0 0 0 0 0 0 0 0 0 0 0 0 0 0 0 0 0 0 0 0 0 0 0 0
0;
#X coords 0 1 99 -1 200 140 1;
#X restore 497 415 graph;
#X obj 309 318 drunk 60 3;
#X connect 0 0 8 0;
#X connect 0 0 8 1;
#X connect 0 0 10 0;
#X connect 0 1 3 0;
#X connect 1 0 0 0;
#X connect 2 0 0 0;
#X connect 2 0 4 0;
#X connect 3 0 5 0;
#X connect 4 0 3 0;
#X connect 5 0 0 0;
#X connect 6 0 9 0;
#X connect 7 0 5 0;
#X connect 9 0 1 0;
#X connect 9 1 7 0;
#X connect 10 0 11 0;
#X connect 11 0 16 0;
#X connect 12 0 13 0;
#X connect 13 0 20 0;
#X connect 14 0 12 0;
#X connect 14 1 15 0;
#X connect 15 0 12 0;
#X connect 16 0 14 0;
#X connect 17 0 16 1;
#X connect 20 0 6 0;
#X connect 20 0 18 0;
