#N canvas 351 242 813 629 10;
#X obj -41 199 readsf~;
#X msg -37 45 1;
#X msg -17 82 0;
#X obj 24 141 bng 15 250 50 0 empty empty empty 17 7 0 10 -262144 -1
-1;
#X obj -13 114 t b;
#X obj 72 24 * 44100;
#X obj -34 317 output~;
#X obj 42 1 t b f;
#X obj 39 232 env~;
#X floatatom 40 278 5 0 0 0 - - -;
#X obj 64 372 oneshot;
#X obj 68 408 bng 15 250 50 0 empty empty empty 17 7 0 10 -262144 -1
-1;
#X obj 67 333 sel 1;
#X msg 112 351 clear;
#X obj 71 306 > 92;
#X floatatom 134 277 5 0 0 0 - - -;
#N canvas 0 22 450 278 (subpatch) 0;
#X array track 100 float 3;
#A 0 0 0 0 0 0 0 0 0 0 0 0 0 0 0 0 0 0 0 0 0 0 0 0 0 0 0 0 0 0 0 0
0 0 0 0 0 0 0 0 0 0 0 0 0 0 0 0 0 0 0 0 0 0 0 0 0 0 0 0 0 0 0 0 0 0
0 0 0 0 0 0 0 0 0 0 0 0 0 0 0 0 0 0 0 0 0 0 0 0 0 0 0 0 0 0 0 0 0 0
0;
#X coords 0 1 99 -1 200 140 1;
#X restore 497 415 graph;
#X msg 75 47 open /Users/kieran/Desktop/destructive_EP/Mist_form_wip.wav
\$1;
#X obj 73 530 s playback;
#X obj 92 -24 r playback;
#X floatatom 142 17 10 0 0 0 - - -;
#X obj 91 124 tgl 15 0 empty empty empty 17 7 0 10 -262144 -1 -1 0
1;
#X obj 103 162 metro 1;
#X obj 109 207 counter 0;
#X msg 42 56 0;
#X obj 144 99 f;
#X obj 153 127 / 44.1;
#X msg 178 167 set \$1;
#X floatatom 225 135 5 0 0 0 - - -;
#X obj 97 96 bng 15 250 50 0 empty empty empty 17 7 0 10 -262144 -1
-1;
#X obj 190 281 / 1000;
#X floatatom 257 311 5 0 0 0 - - -;
#X obj 186 461 random 10;
#X obj 186 483 - 5;
#X obj 188 432 f;
#X obj 131 449 t b b;
#X obj 154 505 +;
#X floatatom 167 533 5 0 0 0 - - -;
#X msg 218 233 88;
#X msg 256 230 95;
#X connect 0 0 6 0;
#X connect 0 0 6 1;
#X connect 0 0 8 0;
#X connect 0 1 3 0;
#X connect 1 0 0 0;
#X connect 1 0 21 0;
#X connect 1 0 29 0;
#X connect 2 0 0 0;
#X connect 2 0 4 0;
#X connect 3 0 24 0;
#X connect 4 0 3 0;
#X connect 5 0 17 0;
#X connect 5 0 20 0;
#X connect 7 0 1 0;
#X connect 7 1 5 0;
#X connect 8 0 9 0;
#X connect 9 0 14 0;
#X connect 10 0 11 0;
#X connect 11 0 35 0;
#X connect 12 0 10 0;
#X connect 12 1 13 0;
#X connect 13 0 10 0;
#X connect 14 0 12 0;
#X connect 15 0 14 1;
#X connect 17 0 0 0;
#X connect 19 0 7 0;
#X connect 20 0 25 1;
#X connect 21 0 22 0;
#X connect 22 0 23 0;
#X connect 23 0 30 0;
#X connect 24 0 5 0;
#X connect 24 0 21 0;
#X connect 25 0 26 0;
#X connect 26 0 27 0;
#X connect 26 0 28 0;
#X connect 27 0 23 0;
#X connect 29 0 25 0;
#X connect 30 0 34 1;
#X connect 30 0 31 0;
#X connect 32 0 33 0;
#X connect 33 0 36 1;
#X connect 34 0 36 0;
#X connect 35 0 34 0;
#X connect 35 1 32 0;
#X connect 36 0 18 0;
#X connect 36 0 37 0;
#X connect 38 0 15 0;
#X connect 39 0 15 0;
