#N canvas 448 92 846 558 10;
#X msg 90 87 open /Users/kieran/Desktop/pdstuff/Mist_form_wip.wav;
#X obj 90 137 readsf~;
#X msg 151 110 1;
#X msg 188 112 0;
#X obj 426 90 bng 15 250 50 0 empty empty empty 17 7 0 10 -262144 -1
-1;
#X obj 70 499 dac~;
#X obj 72 460 *~;
#X obj 107 459 *~;
#X obj 183 443 hsl 128 15 0 1 0 1 empty empty empty -2 -8 0 10 -262144
-1 -1 12600 1;
#X obj 420 64 t b;
#X connect 0 0 1 0;
#X connect 1 0 6 0;
#X connect 1 0 7 0;
#X connect 1 1 4 0;
#X connect 2 0 1 0;
#X connect 3 0 1 0;
#X connect 3 0 9 0;
#X connect 4 0 0 0;
#X connect 6 0 5 0;
#X connect 7 0 5 1;
#X connect 8 0 6 1;
#X connect 8 0 7 1;
#X connect 9 0 4 0;
