#N canvas 364 121 916 655 12;
#N canvas 265 48 643 640 fft-analysis 0;
#X obj 15 164 *~;
#X obj 14 99 inlet~;
#X obj 15 218 rfft~;
#X obj 36 140 tabreceive~ \$0-hann;
#X obj 14 353 *~;
#X obj 56 353 *~;
#X text 85 88 The inlet~ now re-uses 3/4 of the previous block \, along
with the 128 new samples.;
#X text 221 141 window function as before.;
#X obj 77 225 *~;
#X obj 16 506 *~;
#X obj 37 481 tabreceive~ \$0-hann;
#X text 98 301 divide by 3N/2 (factor of N because rfft and rifft aren't
normalized \, and 3/2 is the gain of overlap-4 reconstruction when
Hann window function is applied twice.);
#X text 120 216 Just to show we're doing something \, we multiply each
channel by a gain controlled by an array in the main window. The control
is quartic-scaled for easy editing.;
#X obj 78 251 *~;
#X text 92 357 Multiply the (complex-valued) spectrum amplitudes by
the (real-valued) gain-and-normalization-factor;
#X obj 15 399 rifft~;
#X text 89 396 Real-valued inverse Fourier transform. This uses only
the first N/@ points of its inputs \, supplying the rest by symmerty
(so it's OK that rfft~ obly puts out those N/2 points.) There's only
one outlet because the output is real-valued.;
#X obj 16 566 outlet~;
#X text 88 499 Multiply by the Hann window function again \, necessary
because the operation we performed might result in a signal that doesn't
go smoothly to zero at both ends.;
#X text 89 566 This repackages the output into 64-sample chunks for
the parent window. Since we're operating with an overlap \, the outlet~
object performs an overlapped sum of the blocks computed in this window.
;
#X text 129 8 block~ object specifies vector size of 512 and overlap
four. This window now computes blocks of 512 samples at intervals of
128 samples computed on the parent patch.;
#X obj 76 196 tabreceive~ gain;
#X obj 15 8 block~ 1024 4;
#X obj 77 283 /~ 1536;
#X connect 0 0 2 0;
#X connect 1 0 0 0;
#X connect 2 0 4 0;
#X connect 2 1 5 0;
#X connect 3 0 0 1;
#X connect 4 0 15 0;
#X connect 5 0 15 1;
#X connect 8 0 13 0;
#X connect 8 0 13 1;
#X connect 9 0 17 0;
#X connect 10 0 9 1;
#X connect 13 0 23 0;
#X connect 15 0 9 0;
#X connect 21 0 8 0;
#X connect 21 0 8 1;
#X connect 23 0 4 1;
#X connect 23 0 5 1;
#X restore 33 217 pd fft-analysis;
#N canvas 35 66 592 433 Hann-window 0;
#N canvas 0 22 450 300 (subpatch) 0;
#X array \$0-hann 1024 float 0;
#X coords 0 1 1023 0 200 120 1;
#X restore 293 249 graph;
#X msg 171 263 0;
#X obj 65 312 osc~;
#X obj 65 264 samplerate~;
#X obj 65 335 *~ -0.5;
#X obj 65 358 +~ 0.5;
#X obj 57 383 tabwrite~ \$0-hann;
#X text 279 241 1;
#X text 272 359 0;
#X text 288 372 0;
#X obj 57 241 bng 15 250 50 0 empty empty empty 0 -6 0 8 -262144 -1
-1;
#X text 336 221 Hann window;
#X text 113 310 period 512;
#X text 90 215 recalculate Hann;
#X text 125 230 window table;
#X obj 57 146 loadbang;
#X msg 79 179 \; pd dsp 1;
#X text 40 27 The Hann window is now recomputed on 'loadbang' to make
the file smaller (it doesn't have to be saved with the array.);
#X text 474 375 511;
#X obj 65 288 / 1024;
#X connect 1 0 2 1;
#X connect 2 0 4 0;
#X connect 3 0 19 0;
#X connect 4 0 5 0;
#X connect 5 0 6 0;
#X connect 10 0 3 0;
#X connect 10 0 1 0;
#X connect 10 0 6 0;
#X connect 15 0 10 0;
#X connect 15 0 16 0;
#X connect 19 0 2 0;
#X restore 144 451 pd Hann-window;
#X obj 29 404 output~;
#N canvas 0 22 450 300 (subpatch) 0;
#X array gain 512 float 3;
#A 0 1 1 1 1 1 1 1 1 1 1 1 1 1 1 1 1 1 1 1 1 1 1 1 1 1 1 1 1 1 1 1
1 1 1 1 1 1 1 1 1 1 1 1 1 1 1 1 1 1 1 1 1 1 1 1 1 1 1 1 1 1 1 1 1 1
1 1 1 1 1 1 1 1 1 1 1 1 1 1 1 1 1 1 1 1 1 1 1 1 1 1 1 1 1 1 1 1 1 1
1 1 1 1 1 1 1 1 1 1 1 1 1 1 1 1 1 1 1 1 1 1 1 1 1 1 1 1 1 1 1 1 1 1
1 1 1 1 1 1 1 1 1 1 1 1 1 1 1 1 1 1 1 1 1 1 1 1 1 1 1 1 1 1 1 1 1 1
1 1 1 1 1 1 1 1 1 1 1 1 1 1 1 1 1 1 1 1 1 1 1 1 1 1 1 1 1 1 1 1 1 1
1 1 1 1 1 1 1 1 1 1 1 1 1 1 1 1 1 1 1 1 1 1 1 1 1 1 1 1 1 1 1 1 1 1
1 1 1 1 1 1 1 1 1 1 1 1 1 1 1 1 1 1 1 1 1 1 1 1 1 1 1 1 1 1 1 1 1 1
1 1 1 1 1 1 1 1 1 1 1 1 1 1 1 1 1 1 1 1 1 1 1 1 1 1 1 1 1 1 1 1 1 1
1 1 1 1 1 1 1 1 1 1 1 1 1 1 1 1 1 1 1 1 1 1 1 1 1 1 1 1 1 1 1 1 1 1
1 1 1 1 1 1 1 1 1 1 1 1 1 1 1 1 1 1 1 1 1 1 1 1 1 1 1 1 1 1 1 1 1 1
1 1 1 1 1 1 1 1 1 1 1 1 1 1 1 1 1 1 1 1 1 1 1 1 1 1 1 1 1 1 1 1 1 1
1 1 1 1 1 1 1 1 1 1 1 1 1 1 1 1 1 1 1 1 1 1 1 1 1 1 1 1 1 1 1 1 1 1
1 1 1 1 1 1 1 1 1 1 1 1 1 1 1 1 1 1 1 1 1 1 1 1 1 1 1 1 1 1 1 1 1 1
1 1 1 1 1 1 1 1 1 1 1 1 1 1 1 1 1 1 1 1 1 1 1 1 1 1 1 1 1 1 1 1 1 1
1 1 1 1 1;
#X coords 0 1 512 -0.01 512 60 1;
#X restore 45 36 graph;
#X msg 144 397 const 0;
#X text 21 80 0;
#X text 21 21 1;
#X text 34 90 0;
#X text 531 93 22K;
#X text 222 394 <- reset gain;
#X msg 34 140 open /Users/kieran/Desktop/pdstuff/Mist_form_wip.wav
;
#X obj 34 190 readsf~;
#X msg 95 163 1;
#X msg 132 165 0;
#X obj 370 143 bng 15 250 50 0 empty empty empty 17 7 0 10 -262144
-1 -1;
#X obj 364 117 t b;
#X msg 648 355 0;
#X obj 644 282 bng 15 250 50 0 empty empty empty 17 7 0 10 -262144
-1 -1;
#X obj 640 314 t b b;
#X obj 716 244 metro 500;
#X obj 714 220 tgl 15 0 empty empty empty 17 7 0 10 -262144 -1 -1 0
1;
#X floatatom 791 196 5 0 0 0 - - -;
#X floatatom 774 412 5 0 0 0 - - -;
#X obj 144 426 s gain;
#X msg 590 -101 \; gain 0 0 0 0 1 0 0 0 1 0 0 0 0 0 0 1;
#N canvas 1139 262 450 300 oscbank 0;
#X restore 471 252 pd oscbank;
#X text 25 12 comment;
#X obj 644 433 tabwrite gain;
#N canvas 783 60 802 888 grains 0;
#X obj 3 2 inlet~;
#X obj 219 851 outlet~;
#X obj 4 65 delwrite~ b1 5000;
#X obj 81 752 vd~ b1;
#X obj 57 415 phasor~;
#X obj 58 595 *~ -1;
#X obj 58 620 +~ 1;
#X obj 158 709 sig~ 1;
#X obj 223 717 cos~;
#X obj 159 742 -~;
#X obj 160 767 *~ 0.5;
#X obj 81 796 *~;
#X obj 89 682 samphold~;
#X obj 58 709 *~;
#X obj 90 654 sig~;
#X floatatom 167 394 5 0 0 0 - - -;
#X floatatom 120 317 10 0 0 0 - - -;
#X floatatom 89 377 5 0 0 0 - - -;
#X obj 167 368 / 44.1;
#X obj 468 732 vd~ b1;
#X obj 444 564 *~ -1;
#X obj 445 597 +~ 1;
#X obj 538 693 sig~ 1;
#X obj 602 700 cos~;
#X obj 539 724 -~;
#X obj 540 749 *~ 0.5;
#X obj 467 781 *~;
#X obj 479 662 samphold~;
#X obj 445 689 *~;
#X obj 480 634 sig~;
#X obj 465 477 +~ 0.5;
#X obj 465 499 wrap~;
#X obj 120 338 expr (pow(2 \, ($f2/12)) - 1) * (44100/$f1);
#X text 262 742 another way to;
#X text 236 768 make a Hanning window;
#X obj 175 36 inlet;
#X obj 253 26 inlet;
#X obj 468 836 s~ feed;
#X obj 87 9 r~ feed;
#X obj 134 46 *~;
#X obj 346 40 inlet;
#N canvas 0 22 450 278 (subpatch) 0;
#X array taaab 100 float 2;
#X coords 0 1 100 0 200 140 1 0 0;
#X restore 533 166 graph;
#X obj 660 731 *~ 44100;
#X obj 653 760 tabread~ taaab;
#X obj 250 664 tabread~ taaab;
#X obj 258 635 *~ 100;
#X connect 0 0 2 0;
#X connect 3 0 11 0;
#X connect 4 0 5 0;
#X connect 4 0 8 0;
#X connect 4 0 12 1;
#X connect 4 0 30 0;
#X connect 4 0 45 0;
#X connect 5 0 6 0;
#X connect 6 0 13 0;
#X connect 7 0 9 0;
#X connect 8 0 9 1;
#X connect 9 0 10 0;
#X connect 11 0 1 0;
#X connect 12 0 13 1;
#X connect 13 0 3 0;
#X connect 14 0 12 0;
#X connect 15 0 29 0;
#X connect 15 0 14 0;
#X connect 16 0 18 0;
#X connect 16 0 32 0;
#X connect 17 0 4 0;
#X connect 18 0 15 0;
#X connect 19 0 26 0;
#X connect 20 0 21 0;
#X connect 21 0 28 0;
#X connect 22 0 24 0;
#X connect 23 0 24 1;
#X connect 24 0 25 0;
#X connect 26 0 1 0;
#X connect 26 0 37 0;
#X connect 27 0 28 1;
#X connect 28 0 19 0;
#X connect 29 0 27 0;
#X connect 30 0 31 0;
#X connect 31 0 20 0;
#X connect 31 0 27 1;
#X connect 31 0 23 0;
#X connect 31 0 42 0;
#X connect 32 0 17 0;
#X connect 35 0 16 0;
#X connect 36 0 32 1;
#X connect 38 0 39 0;
#X connect 39 0 2 0;
#X connect 40 0 39 1;
#X connect 42 0 43 0;
#X connect 43 0 26 1;
#X connect 44 0 11 1;
#X connect 45 0 44 0;
#X restore 99 248 pd grains;
#X floatatom 720 149 5 0 0 0 - - -;
#X obj 720 170 t b f;
#X obj 587 -49 vsl 15 128 100 30000 0 0 empty empty empty 0 -8 0 8
-262144 -1 -1 0 1;
#X obj 587 87 t b f;
#X obj 720 69 vsl 15 73 -36 36 0 0 empty empty empty 0 -8 0 8 -262144
-1 -1 3600 1;
#X text 737 133 -36;
#X text 604 68 100;
#X obj 713 373 expr $f1 / 2 + 4;
#X obj 718 329 random 512;
#X obj 800 25 vsl 15 64 0 0.99 0 1 empty empty empty 0 -9 0 10 -262144
-1 -1 0 1;
#X floatatom 800 108 5 0 0 0 - - -;
#X msg 195 371 const 1;
#X obj 692 9 snapshot~;
#X obj 725 42 *;
#X obj 667 -23 osc~ 0.1;
#X obj 485 139 vsl 15 64 0 0.99 0 1 empty empty empty 0 -9 0 10 -262144
-1 -1 0 1;
#X connect 0 0 28 0;
#X connect 4 0 23 0;
#X connect 10 0 11 0;
#X connect 11 0 0 0;
#X connect 11 1 14 0;
#X connect 12 0 11 0;
#X connect 13 0 11 0;
#X connect 13 0 15 0;
#X connect 14 0 10 0;
#X connect 15 0 14 0;
#X connect 16 0 27 0;
#X connect 17 0 18 0;
#X connect 18 0 16 0;
#X connect 18 1 37 0;
#X connect 19 0 41 0;
#X connect 20 0 19 0;
#X connect 21 0 19 1;
#X connect 28 0 2 0;
#X connect 28 0 2 1;
#X connect 29 0 30 0;
#X connect 30 0 28 1;
#X connect 30 1 28 2;
#X connect 31 0 32 0;
#X connect 32 0 29 0;
#X connect 32 1 28 1;
#X connect 33 0 29 0;
#X connect 36 0 22 0;
#X connect 36 0 27 1;
#X connect 37 0 36 0;
#X connect 38 0 42 1;
#X connect 40 0 23 0;
#X connect 41 0 42 0;
#X connect 42 0 33 0;
#X connect 42 0 39 0;
#X connect 43 0 41 0;
#X connect 44 0 28 3;
